<?xml version="1.0" encoding="UTF-8"?>
<svg version="1.1" xmlns="http://www.w3.org/2000/svg" width="50" height="50">
<path d="M0 0 C16.5 0 33 0 50 0 C50 16.5 50 33 50 50 C33.5 50 17 50 0 50 C0 33.5 0 17 0 0 Z " fill="#CCD6B4" transform="translate(0,0)"/>
<path d="M0 0 C16.5 0 33 0 50 0 C50 16.5 50 33 50 50 C33.5 50 17 50 0 50 C0 33.5 0 17 0 0 Z M4.6640625 11.68359375 C0.49357345 17.48899283 0.37703175 23.06947823 1 30 C2.4294237 36.52174564 5.63402021 41.69311693 11.16015625 45.48046875 C18.10132656 49.4075651 24.48024435 50.24885663 32.26171875 48.48828125 C38.33849709 46.4858381 43.00897972 42.96704828 46.3125 37.4375 C49.4720976 31.00128266 50.43900775 23.64549242 48.28125 16.6796875 C45.1695163 10.0798007 40.06686991 4.88464703 33.4375 1.8125 C20.69411816 -1.19957207 13.03706783 2.09299999 4.6640625 11.68359375 Z " fill="#FBFCF5" transform="translate(0,0)"/>
<path d="M0 0 C5.09620539 3.01237564 8.70841667 7.93775001 10.5625 13.5 C10.69031786 16.17394964 10.60641871 18.82095857 10.5625 21.5 C9.80066406 21.47679688 9.03882813 21.45359375 8.25390625 21.4296875 C1.65504606 21.31435162 -4.06009502 21.79935867 -10.4375 23.5 C-10.4375 21.52 -10.4375 19.54 -10.4375 17.5 C-9.82261719 17.29246094 -9.20773438 17.08492187 -8.57421875 16.87109375 C-3.74701849 15.14580419 -3.74701849 15.14580419 -0.171875 11.67578125 C0.74427812 9.56283185 0.74427812 9.56283185 1.5625 6.5 C-3.59748377 6.87409251 -3.59748377 6.87409251 -7.875 9.5625 C-8.390625 10.201875 -8.90625 10.84125 -9.4375 11.5 C-9.953125 11.190625 -10.46875 10.88125 -11 10.5625 C-14.10415423 9.20940713 -17.08865007 8.88640576 -20.4375 8.5 C-19.75017043 11.24931827 -19.08189778 13.03418821 -16.74609375 14.72265625 C-15.00633675 15.70324656 -13.2237389 16.60688055 -11.4375 17.5 C-11.4375 19.15 -11.4375 20.8 -11.4375 22.5 C-12.51 22.335 -13.5825 22.17 -14.6875 22 C-20.26008642 21.28839274 -25.83013574 21.41588954 -31.4375 21.5 C-32.07806466 14.77407109 -31.35617275 10.95432051 -27.25390625 5.51953125 C-20.11679141 -2.41571256 -9.97895295 -4.27122171 0 0 Z " fill="#648B48" transform="translate(35.4375,5.5)"/>
<path d="M0 0 C5.62794181 3.49046088 9.84511309 8.93377677 11.93359375 15.19921875 C12.66262464 23.87749036 11.6458496 30.28151585 6.68359375 37.44921875 C1.42054943 42.71226307 -3.9022165 45.22276504 -11.31640625 45.26171875 C-13.17265625 45.23078125 -13.17265625 45.23078125 -15.06640625 45.19921875 C-15.06640625 44.86921875 -15.06640625 44.53921875 -15.06640625 44.19921875 C-14.20917969 44.04066406 -13.35195313 43.88210937 -12.46875 43.71875 C-4.73881719 42.14139054 1.1910313 40.79285954 6.2734375 34.5546875 C10.07409405 28.47619639 9.24109631 21.99143986 7.93359375 15.19921875 C6.25022872 9.55180059 3.50800005 6.3227151 -1.3828125 3.109375 C-6.82995787 0.16463052 -13.07572821 0.47728304 -19.06640625 1.19921875 C-24.24429163 3.28527329 -28.93689831 6.81195456 -31.41015625 11.953125 C-33.32067279 18.49209531 -34.39253718 26.26854465 -31.69140625 32.69921875 C-28.93833543 37.20073104 -24.53390812 39.61580146 -20.06640625 42.19921875 C-19.07640625 42.85921875 -18.08640625 43.51921875 -17.06640625 44.19921875 C-23.0451344 43.90028234 -26.85583986 41.22125232 -31.06640625 37.19921875 C-36.13758492 30.45702132 -36.84193467 23.39929127 -36.06640625 15.19921875 C-34.22069252 8.12813982 -28.8434708 3.34935281 -23.06640625 -0.80078125 C-15.52568383 -4.49321766 -7.36569366 -3.74192993 0 0 Z " fill="#96AC80" transform="translate(37.06640625,3.80078125)"/>
<path d="M0 0 C9.1340267 -0.47381118 15.75644877 0.13297755 24 4 C26.03453968 4.76912356 28.07635615 5.51927353 30.125 6.25 C31.05570313 6.58515625 31.98640625 6.9203125 32.9453125 7.265625 C33.62335937 7.50796875 34.30140625 7.7503125 35 8 C34.67 8.66 34.34 9.32 34 10 C30.7 9.67 27.4 9.34 24 9 C26.31 9.66 28.62 10.32 31 11 C29 13 29 13 26.5 13.4375 C22.99802619 12.99975327 21.2958012 12.21949247 18.25 10.5625 C13.18023299 7.83499617 8.70730445 7.13357521 3 7 C2.67 6.01 2.34 5.02 2 4 C6.33333333 4 10.66666667 4 15 4 C8.07 3.505 8.07 3.505 1 3 C0.67 2.01 0.34 1.02 0 0 Z " fill="#C89861" transform="translate(5,32)"/>
<path d="M0 0 C3.08019713 0.46669653 5.45211142 1.2047297 8.3125 2.5 C12.3928216 4.15979184 15.63977575 4.61752419 20 5 C18.82800429 8.28158798 17.06618412 10.19825025 14.1171875 12.046875 C8.75792607 14.45953144 1.67733238 16.89244413 -4 15 C-5.70797293 14.10033841 -7.39387721 13.15820103 -9.0625 12.1875 C-9.94035156 11.68605469 -10.81820313 11.18460938 -11.72265625 10.66796875 C-14.1018275 8.92541965 -14.95672766 7.71722344 -16 5 C-8.72360609 5.15216793 -3.59749226 6.39236076 2.76171875 9.921875 C5.60059942 11.28929396 7.89470715 11.40859116 11 11 C9.02 10.01 7.04 9.02 5 8 C9.05047576 6.64984141 11.7920168 7.37915002 16 8 C15.18015625 7.67386719 14.3603125 7.34773438 13.515625 7.01171875 C12.43796875 6.57472656 11.3603125 6.13773438 10.25 5.6875 C9.18265625 5.25824219 8.1153125 4.82898437 7.015625 4.38671875 C4.3347085 3.15391388 2.2616808 1.87192513 0 0 Z " fill="#E3D1B2" transform="translate(23,33)"/>
<path d="M0 0 C0.66 0.33 1.32 0.66 2 1 C1.50628906 1.69867188 1.01257812 2.39734375 0.50390625 3.1171875 C-0.13675781 4.02726563 -0.77742187 4.93734375 -1.4375 5.875 C-2.07558594 6.77992187 -2.71367187 7.68484375 -3.37109375 8.6171875 C-7.17551048 14.18240142 -7.07995002 20.38595254 -7 27 C-5.86380783 32.53351607 -3.00994044 35.25708792 1.5625 38.375 C3.03376707 39.26321857 4.51224766 40.13967913 6 41 C6.99 41.66 7.98 42.32 9 43 C3.02127185 42.70106359 -0.78943361 40.02203357 -5 36 C-10.05775667 29.2756473 -10.80595091 22.18437471 -10 14 C-8.21037388 8.01753555 -4.53997513 4.12725011 0 0 Z " fill="#92A97B" transform="translate(11,5)"/>
<path d="M0 0 C4.60228561 2.40326918 8.33148799 3.12317803 13.4284668 3.52734375 C13.4284668 4.18734375 13.4284668 4.84734375 13.4284668 5.52734375 C6.23405617 6.39067303 1.00484011 3.8950358 -5.3996582 0.9375 C-10.14793278 -1.17349399 -14.13299425 -1.67195852 -19.3215332 -2.03515625 C-20.49200195 -2.11894531 -21.6624707 -2.20273437 -22.8684082 -2.2890625 C-23.76043945 -2.34964844 -24.6524707 -2.41023438 -25.5715332 -2.47265625 C-25.5715332 -3.13265625 -25.5715332 -3.79265625 -25.5715332 -4.47265625 C-16.4060738 -7.22014759 -8.07969783 -4.31437021 0 0 Z " fill="#C5935A" transform="translate(29.571533203125,32.47265625)"/>
<path d="M0 0 C-0.33 0.66 -0.66 1.32 -1 2 C-1.80050781 1.7834375 -1.80050781 1.7834375 -2.6171875 1.5625 C-8.50228763 0.09631589 -13.95009776 -0.22734497 -20 0 C-20 0.66 -20 1.32 -20 2 C-19.13117187 1.97679687 -18.26234375 1.95359375 -17.3671875 1.9296875 C-16.21476562 1.91164063 -15.06234375 1.89359375 -13.875 1.875 C-12.16957031 1.84019531 -12.16957031 1.84019531 -10.4296875 1.8046875 C-6.94242233 2.00327891 -4.2446138 2.7475199 -1 4 C-4.81516464 5.30062431 -8.27561763 4.89369853 -12.25 4.5625 C-13.51328125 4.46066406 -14.7765625 4.35882813 -16.078125 4.25390625 C-17.04234375 4.17011719 -18.0065625 4.08632813 -19 4 C-18.67 4.66 -18.34 5.32 -18 6 C-14.47191136 6.36056792 -10.96200969 6.44474373 -7.41796875 6.55859375 C-4 7 -4 7 0 10 C-5.61 9.34 -11.22 8.68 -17 8 C-17.33 8.66 -17.66 9.32 -18 10 C-20.15305957 6.14243493 -21.39253254 3.44870215 -21 -1 C-13.76984919 -3.03551543 -7.10300242 -2.06632798 0 0 Z " fill="#E0CFAF" transform="translate(24,28)"/>
<path d="M0 0 C10.55808656 -0.18451025 10.55808656 -0.18451025 15 1 C15 1.99 15 2.98 15 4 C13.35 4 11.7 4 10 4 C11.32 4.33 12.64 4.66 14 5 C14 5.66 14 6.32 14 7 C12.20866022 7.05391993 10.41686101 7.09275571 8.625 7.125 C7.62726562 7.14820313 6.62953125 7.17140625 5.6015625 7.1953125 C3 7 3 7 1 5 C-1.06874034 4.3574765 -1.06874034 4.3574765 -3 4 C-3 3.34 -3 2.68 -3 2 C-2.01 2 -1.02 2 0 2 C0 1.34 0 0.68 0 0 Z " fill="#CA9D68" transform="translate(31,27)"/>
<path d="M0 0 C4.51617599 -0.07654536 8.59085217 -0.10228696 13 1 C12.38461538 8.50769231 12.38461538 8.50769231 10.4375 11 C9.963125 11.33 9.48875 11.66 9 12 C9 11.34 9 10.68 9 10 C7.845 10.0825 6.69 10.165 5.5 10.25 C0.60695379 10.28495033 -2.86849494 8.46132216 -7 6 C-7 4.68 -7 3.36 -7 2 C-5.68 2.33 -4.36 2.66 -3 3 C-3.99 3 -4.98 3 -6 3 C-6 3.66 -6 4.32 -6 5 C-3.36 5 -0.72 5 2 5 C1.34 5.66 0.68 6.32 0 7 C3.63 7.33 7.26 7.66 11 8 C11 7.34 11 6.68 11 6 C8.36 5.67 5.72 5.34 3 5 C3 4.67 3 4.34 3 4 C5.97 4.33 8.94 4.66 12 5 C12 4.01 12 3.02 12 2 C8.04 1.67 4.08 1.34 0 1 C0 0.67 0 0.34 0 0 Z " fill="#E1D1B2" transform="translate(34,26)"/>
<path d="M0 0 C1.134375 0.020625 2.26875 0.04125 3.4375 0.0625 C2.84175532 5.42420213 2.84175532 5.42420213 1.25 7.9375 C-1.36264875 9.55914405 -3.55770702 9.26281953 -6.5625 9.0625 C-6.5625 3.6915334 -5.61114417 0.09844113 0 0 Z " fill="#A9BC87" transform="translate(33.5625,11.9375)"/>
<path d="M0 0 C6.77386385 0.27259009 11.34724339 1.19053359 17 5 C17 5.33 17 5.66 17 6 C10.61659105 6.66493843 6.74741314 5.82717741 1.43359375 2.19140625 C0.96050781 1.79824219 0.48742188 1.40507813 0 1 C0 0.67 0 0.34 0 0 Z " fill="#C6945B" transform="translate(10,40)"/>
<path d="M0 0 C2.2477975 2.05233685 3.0022242 3.00667261 4 6 C4.0685495 7.89470816 4.08480372 9.7916834 4.0625 11.6875 C4.05347656 12.68136719 4.04445313 13.67523438 4.03515625 14.69921875 C4.02355469 15.45847656 4.01195312 16.21773437 4 17 C1.99496301 15.35188059 1.06692209 14.54146058 0.7421875 11.9140625 C0.78601562 11.15867187 0.82984375 10.40328125 0.875 9.625 C0.99651363 6.23918849 0.85347103 3.30720026 0 0 Z " fill="#94AB7D" transform="translate(45,13)"/>
<path d="M0 0 C2.74148672 0.37047118 4.58593199 0.68587944 6.8125 2.375 C8 4 8 4 8 7 C5.25851328 6.62952882 3.41406801 6.31412056 1.1875 4.625 C0 3 0 3 0 0 Z " fill="#709443" transform="translate(16,14)"/>
<path d="M0 0 C1.62490954 -0.02698189 3.24994633 -0.04638757 4.875 -0.0625 C5.77992187 -0.07410156 6.68484375 -0.08570313 7.6171875 -0.09765625 C10 0 10 0 12 1 C12 1.66 12 2.32 12 3 C8.37 3 4.74 3 1 3 C0.67 2.01 0.34 1.02 0 0 Z " fill="#C59259" transform="translate(7,36)"/>
<path d="M0 0 C0.78375 0.33 1.5675 0.66 2.375 1 C6.99361869 2.27410171 11.24249356 2.16923936 16 2 C16 2.99 16 3.98 16 5 C7.84721112 6.44590059 7.84721112 6.44590059 4.625 4.75 C4.08875 4.1725 3.5525 3.595 3 3 C2.4225 2.443125 1.845 1.88625 1.25 1.3125 C0.8375 0.879375 0.425 0.44625 0 0 Z " fill="#C9C29E" transform="translate(12,43)"/>
<path d="M0 0 C0 0.99 0 1.98 0 3 C-1.97986082 2.88652381 -3.95891598 2.7589065 -5.9375 2.625 C-7.03964844 2.55539063 -8.14179687 2.48578125 -9.27734375 2.4140625 C-10.17582031 2.27742188 -11.07429688 2.14078125 -12 2 C-12.33 1.34 -12.66 0.68 -13 0 C-8.38926889 -1.29676812 -4.66159911 -0.71109139 0 0 Z " fill="#C6945C" transform="translate(46,28)"/>
<path d="M0 0 C1.53202706 0.25195908 3.05257128 0.57596777 4.5625 0.9375 C5.38878906 1.13214844 6.21507812 1.32679687 7.06640625 1.52734375 C8.02353516 1.76130859 8.02353516 1.76130859 9 2 C7 4 7 4 4 4.3125 C2.515 4.1578125 2.515 4.1578125 1 4 C0.34 3.01 -0.32 2.02 -1 1 C-0.67 0.67 -0.34 0.34 0 0 Z " fill="#C69359" transform="translate(27,41)"/>
<path d="M0 0 C-0.33 1.98 -0.66 3.96 -1 6 C-2.32 6.33 -3.64 6.66 -5 7 C-4.34 6.01 -3.68 5.02 -3 4 C-3.99 3.34 -4.98 2.68 -6 2 C-3 0 -3 0 0 0 Z " fill="#6F9342" transform="translate(35,13)"/>
<path d="M0 0 C1.3303125 0.4021875 1.3303125 0.4021875 2.6875 0.8125 C2.130625 1.080625 1.57375 1.34875 1 1.625 C-1.41071537 2.81579541 -1.41071537 2.81579541 -3.9375 4.5 C-4.72125 4.933125 -5.505 5.36625 -6.3125 5.8125 C-6.9725 5.4825 -7.6325 5.1525 -8.3125 4.8125 C-4.12788462 -0.23365385 -4.12788462 -0.23365385 0 0 Z " fill="#AFC09C" transform="translate(19.3125,2.1875)"/>
<path d="M0 0 C2.31 0 4.62 0 7 0 C7 0.99 7 1.98 7 3 C4.69 3 2.38 3 0 3 C0 2.01 0 1.02 0 0 Z " fill="#F4F4EF" transform="translate(41,46)"/>
<path d="M0 0 C2.31 0.66 4.62 1.32 7 2 C7 2.99 7 3.98 7 5 C4.36 4.34 1.72 3.68 -1 3 C-0.67 2.01 -0.34 1.02 0 0 Z " fill="#C99963" transform="translate(18,28)"/>
</svg>
